<mxfile host="Electron" agent="Mozilla/5.0 (Macintosh; Intel Mac OS X 10_15_7) AppleWebKit/537.36 (KHTML, like Gecko) draw.io/25.0.2 Chrome/128.0.6613.186 Electron/32.2.5 Safari/537.36" version="25.0.2">
  <diagram name="Page-1" id="r3HCa6ePeLMjcki0bICy">
    <mxGraphModel dx="439" dy="588" grid="1" gridSize="10" guides="1" tooltips="1" connect="1" arrows="1" fold="1" page="1" pageScale="1" pageWidth="850" pageHeight="1100" math="0" shadow="0">
      <root>
        <mxCell id="0" />
        <mxCell id="1" parent="0" />
        <mxCell id="Jwbc90O_ujwcIK33lNIT-8" style="edgeStyle=orthogonalEdgeStyle;rounded=0;orthogonalLoop=1;jettySize=auto;html=1;endArrow=dash;endFill=0;" parent="1" edge="1">
          <mxGeometry relative="1" as="geometry">
            <mxPoint x="340" y="470" as="targetPoint" />
            <mxPoint x="375" y="470" as="sourcePoint" />
          </mxGeometry>
        </mxCell>
        <mxCell id="Jwbc90O_ujwcIK33lNIT-5" style="edgeStyle=orthogonalEdgeStyle;rounded=0;orthogonalLoop=1;jettySize=auto;html=1;endArrow=oval;endFill=1;" parent="1" edge="1">
          <mxGeometry relative="1" as="geometry">
            <mxPoint x="580" y="470" as="targetPoint" />
            <mxPoint x="580" y="500" as="sourcePoint" />
          </mxGeometry>
        </mxCell>
        <mxCell id="Jwbc90O_ujwcIK33lNIT-6" style="edgeStyle=orthogonalEdgeStyle;rounded=0;orthogonalLoop=1;jettySize=auto;html=1;endArrow=oval;endFill=1;" parent="1" edge="1">
          <mxGeometry relative="1" as="geometry">
            <mxPoint x="580" y="630" as="targetPoint" />
            <mxPoint x="580" y="600" as="sourcePoint" />
          </mxGeometry>
        </mxCell>
        <mxCell id="Jwbc90O_ujwcIK33lNIT-4" style="edgeStyle=orthogonalEdgeStyle;rounded=0;orthogonalLoop=1;jettySize=auto;html=1;endArrow=dash;endFill=0;" parent="1" edge="1">
          <mxGeometry relative="1" as="geometry">
            <mxPoint x="660" y="470" as="targetPoint" />
            <mxPoint x="475" y="470" as="sourcePoint" />
          </mxGeometry>
        </mxCell>
        <mxCell id="Jwbc90O_ujwcIK33lNIT-7" style="edgeStyle=orthogonalEdgeStyle;rounded=0;orthogonalLoop=1;jettySize=auto;html=1;endArrow=dash;endFill=0;startArrow=dash;startFill=0;" parent="1" edge="1">
          <mxGeometry relative="1" as="geometry">
            <mxPoint x="340" y="630" as="sourcePoint" />
            <mxPoint x="655" y="630" as="targetPoint" />
          </mxGeometry>
        </mxCell>
        <mxCell id="Jwbc90O_ujwcIK33lNIT-9" value="&lt;span style=&quot;font-size: 18.3333px;&quot;&gt;L&lt;/span&gt;&lt;span style=&quot;font-size: 15.2778px;&quot;&gt;&lt;sub&gt;1&lt;/sub&gt;&lt;/span&gt;" style="text;html=1;align=center;verticalAlign=middle;resizable=0;points=[];autosize=1;strokeColor=none;fillColor=none;fontSize=22;" parent="1" vertex="1">
          <mxGeometry x="405" y="480" width="40" height="40" as="geometry" />
        </mxCell>
        <mxCell id="Jwbc90O_ujwcIK33lNIT-10" value="L&lt;span style=&quot;font-size: 18.3333px;&quot;&gt;&lt;sub&gt;2&lt;/sub&gt;&lt;/span&gt;" style="text;html=1;align=center;verticalAlign=middle;resizable=0;points=[];autosize=1;strokeColor=none;fillColor=none;fontSize=22;" parent="1" vertex="1">
          <mxGeometry x="527.5" y="530" width="40" height="40" as="geometry" />
        </mxCell>
        <mxCell id="Jwbc90O_ujwcIK33lNIT-12" value="V&lt;sub&gt;IN&lt;/sub&gt;&amp;nbsp;VAC" style="text;html=1;align=center;verticalAlign=middle;resizable=0;points=[];autosize=1;strokeColor=none;fillColor=none;fontSize=22;rotation=90;" parent="1" vertex="1">
          <mxGeometry x="290" y="530" width="110" height="40" as="geometry" />
        </mxCell>
        <mxCell id="Jwbc90O_ujwcIK33lNIT-13" value="V&lt;span style=&quot;font-size: 18.3333px;&quot;&gt;OUT&lt;/span&gt;&amp;nbsp;VAC" style="text;html=1;align=center;verticalAlign=middle;resizable=0;points=[];autosize=1;strokeColor=none;fillColor=none;fontSize=22;rotation=90;" parent="1" vertex="1">
          <mxGeometry x="580" y="530" width="130" height="40" as="geometry" />
        </mxCell>
        <mxCell id="Jwbc90O_ujwcIK33lNIT-15" style="edgeStyle=orthogonalEdgeStyle;rounded=0;orthogonalLoop=1;jettySize=auto;html=1;endArrow=none;endFill=0;" parent="1" source="Jwbc90O_ujwcIK33lNIT-14" edge="1">
          <mxGeometry relative="1" as="geometry">
            <mxPoint x="580" y="630" as="targetPoint" />
          </mxGeometry>
        </mxCell>
        <mxCell id="Jwbc90O_ujwcIK33lNIT-14" value="" style="pointerEvents=1;verticalLabelPosition=bottom;shadow=0;dashed=0;align=center;html=1;verticalAlign=top;shape=mxgraph.electrical.signal_sources.protective_earth;" parent="1" vertex="1">
          <mxGeometry x="567.5" y="650" width="25" height="20" as="geometry" />
        </mxCell>
        <mxCell id="i2GaDCTMvW6EZoRp30Zm-1" value="" style="pointerEvents=1;verticalLabelPosition=bottom;shadow=0;dashed=0;align=center;html=1;verticalAlign=top;shape=mxgraph.electrical.inductors.inductor_3;" vertex="1" parent="1">
          <mxGeometry x="375" y="462" width="100" height="8" as="geometry" />
        </mxCell>
        <mxCell id="i2GaDCTMvW6EZoRp30Zm-2" value="" style="pointerEvents=1;verticalLabelPosition=bottom;shadow=0;dashed=0;align=center;html=1;verticalAlign=top;shape=mxgraph.electrical.inductors.inductor_3;rotation=90;" vertex="1" parent="1">
          <mxGeometry x="534" y="546" width="100" height="8" as="geometry" />
        </mxCell>
      </root>
    </mxGraphModel>
  </diagram>
</mxfile>
